<svg xmlns="http://www.w3.org/2000/svg" width="960" height="600" viewBox="0 0 960 600">
  <defs>
    <style>
      .title { font: bold 28px 'DejaVu Sans', sans-serif; fill: #1f2933; }
      .label { font: 18px 'DejaVu Sans', sans-serif; fill: #243b53; }
      .value { font: 18px 'DejaVu Sans Mono', monospace; fill: #616e7c; }
      .button { font: bold 20px 'DejaVu Sans', sans-serif; fill: #ffffff; }
      .checkbox { font: 16px 'DejaVu Sans', sans-serif; fill: #52606d; }
      .log { font: 16px 'Fira Mono', monospace; fill: #243b53; }
    </style>
  </defs>
  <rect x="0" y="0" width="960" height="600" fill="#f5f7fa"/>
  <rect x="40" y="40" width="880" height="520" rx="18" fill="#ffffff" stroke="#d9e2ec" stroke-width="2"/>
  <text x="80" y="100" class="title">YOLO Training Launcher</text>

  <g transform="translate(80, 140)">
    <text class="label" x="0" y="0">Dataset YAML:</text>
    <rect x="0" y="20" width="420" height="44" rx="8" fill="#e4ebf5" stroke="#cbd2d9" stroke-width="1"/>
    <text class="value" x="14" y="48">/data/coco.yaml</text>
    <rect x="440" y="20" width="120" height="44" rx="8" fill="#334e68"/>
    <text class="button" x="474" y="50">Browse</text>
  </g>

  <g transform="translate(80, 230)">
    <text class="label" x="0" y="0">Pretrained Weights:</text>
    <rect x="0" y="20" width="420" height="44" rx="8" fill="#e4ebf5" stroke="#cbd2d9" stroke-width="1"/>
    <text class="value" x="14" y="48">yolov8n.pt</text>
    <rect x="440" y="20" width="120" height="44" rx="8" fill="#334e68"/>
    <text class="button" x="474" y="50">Browse</text>
  </g>

  <g transform="translate(80, 320)">
    <text class="label" x="0" y="0">Training Hyperparameters</text>
    <rect x="0" y="20" width="360" height="44" rx="8" fill="#ffffff" stroke="#cbd2d9" stroke-width="1"/>
    <text class="label" x="20" y="50">Epochs</text>
    <text class="value" x="120" y="50">100</text>
    <rect x="380" y="20" width="360" height="44" rx="8" fill="#ffffff" stroke="#cbd2d9" stroke-width="1"/>
    <text class="label" x="400" y="50">Batch Size</text>
    <text class="value" x="520" y="50">16</text>
    <rect x="0" y="84" width="360" height="44" rx="8" fill="#ffffff" stroke="#cbd2d9" stroke-width="1"/>
    <text class="label" x="20" y="114">Image Size</text>
    <text class="value" x="140" y="114">640</text>
    <rect x="380" y="84" width="360" height="44" rx="8" fill="#ffffff" stroke="#cbd2d9" stroke-width="1"/>
    <text class="label" x="400" y="114">Learning Rate</text>
    <text class="value" x="580" y="114">0.01</text>
  </g>

  <g transform="translate(80, 450)">
    <rect x="0" y="0" width="220" height="54" rx="12" fill="#2bb0ed"/>
    <text class="button" x="54" y="36">Start Training</text>
    <rect x="240" y="0" width="180" height="54" rx="12" fill="#d64545"/>
    <text class="button" x="286" y="36">Stop</text>
    <g transform="translate(440, 4)">
      <rect x="0" y="0" width="24" height="24" rx="4" fill="#2bb0ed"/>
      <text class="checkbox" x="36" y="18">Save logs to file</text>
    </g>
  </g>

  <g transform="translate(80, 520)">
    <text class="label" x="0" y="0">Training Output</text>
  </g>

  <rect x="80" y="540" width="800" height="0" fill="#ffffff"/>
  <rect x="80" y="360" width="800" height="140" rx="12" fill="#0b7285" opacity="0.08"/>
  <rect x="80" y="520" width="800" height="140" rx="12" fill="#ffffff" stroke="#cbd2d9" stroke-width="1"/>
  <text class="log" x="100" y="560">Epoch 1/100 - mAP@0.5:0.420 - Loss: 4.12</text>
  <text class="log" x="100" y="590">Epoch 2/100 - mAP@0.5:0.487 - Loss: 3.87</text>
  <text class="log" x="100" y="620">Epoch 3/100 - mAP@0.5:0.512 - Loss: 3.63</text>
</svg>
